#!OML:ASF E:\emotionWalksFemale\Project 1\Capture day 1\Session 1\Female1.ASF
:FULLY-SPECIFIED
:DEGREES
282
root 8.34177 19.7697 12.757 179.011 -54.3516 -173.092
lowerback 14.011 -2.90666 1.57224
upperback -3.58542 -3.46796 1.41734
thorax -11.8284 -1.69427 1.49678
lowerneck -6.54389 6.00866 5.25089
upperneck 5.61124 7.6183 -1.29583
head 3.24139 3.84708 -0.953752
rclavicle 3.46755e-014 -6.55989e-015
rhumerus -4.42277 -24.2645 4.76499
rradius 118.18
rwrist -2.23504
rhand -13.699 -49.9311
rfingers 7.12502
rthumb 12.4193 -79.5422
lclavicle 3.46755e-014 -6.55989e-015
lhumerus 57.3807 -8.55874 45.8234
lradius 77.7593
lwrist 16.8321
lhand -16.1046 -63.7738
lfingers 7.12502
lthumb 10.0993 -34.0362
rfemur -19.1446 29.9277 17.4978
rtibia 21.9891
rfoot 22.402 -14.7027
rtoes -12.1457
lfemur -12.1059 -20.9224 -23.2452
ltibia 14.8696
lfoot -44.0748 10.0386
ltoes 69.4374
283
root 8.34418 19.5533 12.6072 178.36 -55.7176 -172.403
lowerback 13.9365 -3.05413 1.0291
upperback -3.47976 -3.76055 1.47897
thorax -11.6204 -1.79338 1.92767
lowerneck -7.25789 5.92051 5.39639
upperneck 5.88528 7.43767 -1.21135
head 3.4707 3.76306 -0.936855
rclavicle -7.46064e-014 -3.18055e-015
rhumerus -7.68031 -23.1386 5.76781
rradius 119.713
rwrist -2.57874
rhand -14.4807 -49.4573
rfingers 7.12502
rthumb 11.6656 -79.1125
lclavicle -7.46064e-014 -3.18055e-015
lhumerus 56.8823 -10.2502 46.2623
lradius 78.9962
lwrist 16.2757
lhand -15.8048 -63.5017
lfingers 7.12502
lthumb 10.3885 -33.7783
rfemur -19.5062 28.7073 17.6217
rtibia 21.8715
rfoot 21.2463 -13.2627
rtoes -10.2808
lfemur -12.3559 -19.4789 -23.2396
ltibia 14.8167
lfoot -42.3417 13.2243
ltoes 68.3372
284
root 8.34745 19.326 12.466 177.646 -57.1808 -171.558
lowerback 14.2027 -3.39108 1.09974
upperback -3.61965 -4.22083 1.20042
thorax -11.9573 -2.02071 1.7199
lowerneck -7.79727 5.80507 5.53801
upperneck 6.25953 7.16544 -0.470579
head 3.66809 3.66077 -0.713677
rclavicle -3.31722e-014 -3.4191e-014
rhumerus -10.8248 -21.5581 5.83396
rradius 121.237
rwrist -2.50259
rhand -15.0979 -48.9267
rfingers 7.12502
rthumb 11.0704 -78.6147
lclavicle -3.31722e-014 -3.4191e-014
lhumerus 56.0121 -12.2646 46.06
lradius 80.357
lwrist 15.7732
lhand -15.436 -63.2285
lfingers 7.12502
lthumb 10.7442 -33.5232
rfemur -19.8621 30.5695 17.1606
rtibia 21.3509
rfoot 20.1541 -16.1222
rtoes -3.85342
lfemur -13.0749 -18.3425 -23.1414
ltibia 15.5093
lfoot -39.8237 18.0425
ltoes 66.2206
285
root 8.35023 19.0937 12.3324 176.821 -58.7649 -170.541
lowerback 14.2972 -3.60858 0.93753
upperback -3.62685 -4.54391 1.17102
thorax -12.0071 -2.16098 1.86396
lowerneck -8.41372 5.61748 5.37888
upperneck 6.34211 6.83561 0.146545
head 3.77142 3.51764 -0.48525
rclavicle 2.80783e-015 -2.34566e-014
rhumerus -14.1776 -20.1329 6.44625
rradius 122.426
rwrist -2.38117
rhand -15.7713 -48.5018
rfingers 7.12502
rthumb 10.4208 -78.2236
lclavicle 2.80783e-015 -2.34566e-014
lhumerus 55.3252 -14.3392 46.2113
lradius 81.8103
lwrist 15.382
lhand -15.2064 -62.9641
lfingers 7.12502
lthumb 10.9656 -33.2704
rfemur -19.9225 30.2443 17.0842
rtibia 20.3594
rfoot 19.3949 -17.2667
rtoes 5.15068
lfemur -14.2829 -16.9217 -23.0704
ltibia 16.9719
lfoot -36.3665 22.6071
ltoes 63.9109
286
root 8.35601 18.859 12.1777 175.72 -60.048 -169.349
lowerback 14.2696 -3.62188 0.344641
upperback -3.47339 -4.65861 1.29821
thorax -11.7532 -2.17159 2.34949
lowerneck -8.79466 5.42965 5.68075
upperneck 6.1309 6.50649 0.303841
head 3.76903 3.36382 -0.500147
rclavicle 1.11319e-014 -1.59028e-015
rhumerus -17.9152 -18.5947 7.1332
rradius 123.283
rwrist -2.46658
rhand -16.7333 -48.1086
rfingers 7.12502
rthumb 9.49265 -77.8748
lclavicle 1.11319e-014 -1.59028e-015
lhumerus 54.7955 -16.6568 46.6989
lradius 83.1064
lwrist 14.7463
lhand -15.0637 -62.4935
lfingers 7.12502
lthumb 11.1033 -32.8072
rfemur -19.7944 30.6134 17.2767
rtibia 19.5279
rfoot 19.6256 -18.4162
rtoes 11.065
lfemur -15.0957 -14.9002 -22.98
ltibia 18.1015
lfoot -31.9191 26.3598
ltoes 62.1125
287
root 8.36121 18.632 12.0344 174.501 -61.3066 -167.957
lowerback 14.2581 -3.7485 -0.0724099
upperback -3.38404 -4.89336 1.41706
thorax -11.5911 -2.25215 2.76048
lowerneck -9.24009 5.3081 5.67193
upperneck 6.08478 6.27794 0.672162
head 3.81806 3.26369 -0.380966
rclavicle -4.85532e-014 -9.54166e-015
rhumerus -21.1466 -16.934 7.02099
rradius 123.89
rwrist -2.25129
rhand -17.7238 -47.7698
rfingers 7.12502
rthumb 8.53693 -77.5772
lclavicle -4.85532e-014 -9.54166e-015
lhumerus 53.9396 -19.0215 47.3858
lradius 84.2553
lwrist 13.8884
lhand -14.8614 -61.9912
lfingers 7.12502
lthumb 11.2984 -32.3156
rfemur -19.6329 30.5033 17.6373
rtibia 18.8683
rfoot 20.8295 -18.9682
rtoes 13.7003
lfemur -15.8631 -13.0764 -22.8152
ltibia 19.0162
lfoot -26.3341 29.5438
ltoes 60.4733
288
root 8.36572 18.4016 11.8973 173.31 -62.5078 -166.562
lowerback 14.3218 -3.89602 -0.421031
upperback -3.38798 -5.15085 1.46459
thorax -11.5872 -2.34747 3.07223
lowerneck -9.77744 5.19152 5.66295
upperneck 6.24728 6.03433 1.13456
head 3.95741 3.16447 -0.225673
rclavicle 5.1684e-015 -3.49861e-014
rhumerus -24.2866 -15.1444 6.55983
rradius 124.401
rwrist -2.05347
rhand -18.7499 -47.4306
rfingers 7.12502
rthumb 7.54658 -77.2759
lclavicle 5.1684e-015 -3.49861e-014
lhumerus 52.6852 -21.3951 47.9006
lradius 85.5824
lwrist 13.4056
lhand -14.7199 -61.82
lfingers 7.12502
lthumb 11.4349 -32.1518
rfemur -19.4358 30.0377 18.0188
rtibia 18.3654
rfoot 20.9731 -18.5476
rtoes 14.3743
lfemur -16.624 -11.3871 -22.6996
ltibia 19.9147
lfoot -21.4197 31.1513
ltoes 60.0647
289
root 8.36965 18.1568 11.7558 172.054 -63.5947 -165.04
lowerback 14.2746 -4.02381 -0.612734
upperback -3.39375 -5.36633 1.37918
thorax -11.5464 -2.44054 3.13218
lowerneck -10.4072 5.05195 5.70697
upperneck 6.43361 5.71548 1.81861
head 4.11923 3.04024 -0.00790554
rclavicle -4.01545e-014 1.59028e-015
rhumerus -27.9537 -13.1495 5.73278
rradius 124.738
rwrist -2.0861
rhand -19.9101 -47.0187
rfingers 7.12502
rthumb 6.42661 -76.9012
lclavicle -4.01545e-014 1.59028e-015
lhumerus 51.2863 -23.8984 48.1667
lradius 87.0665
lwrist 13.1631
lhand -14.492 -61.5736
lfingers 7.12502
lthumb 11.6547 -31.9177
rfemur -19.4227 29.1271 18.5229
rtibia 18.2131
rfoot 21.3239 -17.9208
rtoes 16.4302
lfemur -17.3841 -9.56897 -22.561
ltibia 20.8271
lfoot -10.6218 34.6637
ltoes 52.8952
290
root 8.37599 17.8969 11.6188 170.688 -64.6816 -163.332
lowerback 14.1504 -4.20088 -0.698157
upperback -3.37754 -5.63072 1.26388
thorax -11.4459 -2.56774 3.10294
lowerneck -10.8438 5.0779 5.80174
upperneck 6.43274 5.61983 2.52534
head 4.18385 3.02469 0.216964
rclavicle -9.19379e-015 -1.11319e-014
rhumerus -31.525 -11.2095 4.23903
rradius 124.783
rwrist -1.97196
rhand -20.9761 -46.8509
rfingers 7.12502
rthumb 5.39739 -76.7622
lclavicle -9.19379e-015 -1.11319e-014
lhumerus 49.7464 -26.3481 48.4785
lradius 88.5424
lwrist 12.9659
lhand -14.696 -61.0137
lfingers 7.12502
lthumb 11.4579 -31.3468
rfemur -19.6159 27.3367 19.2073
rtibia 18.4378
rfoot 21.376 -17.9161
rtoes 13.6759
lfemur -18.298 -7.55607 -22.4694
ltibia 21.958
lfoot 3.56747 33.7133
ltoes 45.7138
291
root 8.38881 17.6189 11.4896 169.137 -65.7847 -161.439
lowerback 14.1964 -4.36759 -0.806801
upperback -3.40232 -5.88118 1.20034
thorax -11.4852 -2.6798 3.15778
lowerneck -10.8554 5.27749 5.93683
upperneck 6.11165 5.80266 3.13499
head 4.05725 3.1324 0.40381
rclavicle 3.0265e-014 -9.54166e-015
rhumerus -34.7556 -9.54159 2.42605
rradius 124.772
rwrist -2.10776
rhand -21.6731 -47.2232
rfingers 7.12502
rthumb 4.7244 -77.1505
lclavicle 3.0265e-014 -9.54166e-015
lhumerus 48.0913 -28.8759 48.989
lradius 89.7888
lwrist 12.6472
lhand -15.5352 -60.4905
lfingers 7.12502
lthumb 10.6486 -30.7803
rfemur -20.0342 24.9985 20.0204
rtibia 19.2127
rfoot 21.1874 -17.702
rtoes 17.423
lfemur -19.4217 -5.65515 -22.4473
ltibia 23.59
lfoot 5.98148 31.1008
ltoes 50.1299
